<svg width="122" height="59" viewBox="0 0 122 59" xmlns="http://www.w3.org/2000/svg"><title>logo-localist</title><g fill="none" fill-rule="evenodd"><path d="M118.066 46.775c.19 1.122-.734 2.12-2.067 2.231a3516.568 3516.568 0 0 0-98.888 9.628c-1.357.153-2.433-.934-2.4-2.426.21-9.632.44-19.273.69-28.923.04-1.495 1.12-2.743 2.41-2.784a3143.268 3143.268 0 0 1 94.016-1.72c1.264-.002 2.44.922 2.623 2.062 1.185 7.368 2.39 14.68 3.616 21.932" fill="#333745"/><path d="M104.402 28.652c-.02 1.161-1.14 2.114-2.493 2.124-17.411.103-34.71-.046-51.895-.444-1.338-.028-2.289-1.253-2.124-2.73.936-8.456 1.85-16.84 2.741-25.16.158-1.455 1.31-2.481 2.576-2.298a1639.25 1639.25 0 0 0 49.214 6.244c1.282.146 2.314 1.194 2.3 2.344-.084 6.61-.19 13.25-.319 19.92" fill="#78C5D3"/><path d="M121.348 42.834c.116 1.123-.889 2.088-2.243 2.155L2.472 50.618c-1.354.067-2.358-1.099-2.243-2.603C1.27 34.32 2.313 20.67 3.355 7.065 3.469 5.57 4.595 4.41 5.87 4.474l109.838 5.3c1.273.064 2.4 1.034 2.515 2.167 1.041 10.343 2.083 20.64 3.125 30.893" fill="#DF1E3F"/><path fill="#FFF" d="M21.089 39.438h4.265V15.331H21.09zM33.496 35.74c-1.928 0-2.086-1.263-2.086-5.117 0-3.885.158-5.15 2.086-5.15 1.864 0 2.023 1.265 2.023 5.15 0 3.854-.16 5.118-2.023 5.118m0-14.407c-2.211 0-3.665.664-4.613 1.643-1.58 1.61-1.768 4.203-1.768 7.488 0 3.382.22 6.034 1.894 7.614.949.917 2.338 1.517 4.487 1.517 2.15 0 3.57-.633 4.486-1.58 1.643-1.58 1.864-4.202 1.864-7.55 0-3.256-.19-5.846-1.705-7.458-.949-.98-2.4-1.674-4.645-1.674M74.185 19.913h4.265V15.71h-4.265zM71.002 34.226V15.33h-4.265v19.43c0 3.698 1.14 4.74 4.835 4.74.16 0 .76-.03.852-.063v-3.79H72.3c-1.2 0-1.297-.221-1.297-1.422M85.655 39.438c4.045 0 5.467-2.147 5.467-4.802 0-2.59-1.106-3.572-3.887-5.753-1.99-1.546-2.307-1.864-2.307-2.557 0-.696.532-.98 1.605-.98h6.72v8.94c0 3.823 1.011 5.183 5.277 5.183.663 0 1.39 0 1.958-.063v-3.919h-1.357c-1.456 0-1.612-.472-1.612-1.58v-8.561h2.97v-3.823h-2.97v-4.486l-3.444.852-.631 3.634h-6.911c-4.045 0-5.649 1.99-5.649 4.803 0 2.336.79 3.412 3.823 5.75 2.15 1.642 2.338 1.675 2.338 2.464 0 .758-.569 1.075-1.39 1.075H80.21v3.823h5.445zM48.268 25.346h3.224v-3.823h-3.825c-1.864 0-3.19.505-4.139 1.327-1.627 1.475-1.909 4.12-1.924 7.49H41.6l.002.14-.002.142h.003c.015 3.37.297 6.014 1.924 7.489.949.822 2.275 1.327 4.14 1.327h3.824v-3.823h-3.224c-1.862 0-2.273-.82-2.275-5.134.002-4.315.413-5.135 2.275-5.135M60.408 33.372c0 1.58-.221 2.622-1.99 2.622-1.358 0-1.517-.821-1.517-2.56 0-2.242.759-2.685 3.507-2.685v2.623zm2.73-10.49c-.785-.875-2.383-1.313-4.34-1.351v-.008h-5.18v3.823h5.18c1.295 0 1.579.633 1.61 2.022h-.284c-5.213 0-7.33 1.392-7.33 6.446 0 3.885 1.169 5.782 4.739 5.782 2.18 0 3.191-.537 3.949-1.326v1.168h3.128V26.705c0-1.896-.714-3.001-1.473-3.822zM74.185 39.438h4.265V21.555h-4.265z"/></g></svg>