<?xml version="1.0" encoding="UTF-8" standalone="no"?>
<!DOCTYPE svg PUBLIC "-//W3C//DTD SVG 1.1//EN" "http://www.w3.org/Graphics/SVG/1.1/DTD/svg11.dtd">
<svg width="100%" height="100%" viewBox="0 0 220 400" version="1.1" xmlns="http://www.w3.org/2000/svg" xmlns:xlink="http://www.w3.org/1999/xlink" xml:space="preserve" xmlns:serif="http://www.serif.com/" style="fill-rule:evenodd;clip-rule:evenodd;stroke-linejoin:round;stroke-miterlimit:2;">
    <g transform="matrix(0.10592,0,0,0.10592,11.0993,0.339045)">
        <path d="M1554.04,239.571C1501.92,270.34 1415.19,357.456 1312.12,483.802L1406.92,663.033C1473.65,567.84 1541.35,481.879 1609.62,408.61C1615,402.84 1617.5,400.148 1617.5,400.148C1615,402.84 1612.12,405.917 1609.62,408.61C1587.5,432.84 1520.38,511.302 1419.23,666.687C1516.73,661.879 1666.35,641.879 1788.46,621.11C1825,417.456 1752.88,324.379 1752.88,324.379C1752.88,324.379 1661.35,176.302 1554.04,239.571Z" style="fill:url(#_Linear1);fill-rule:nonzero;"/>
    </g>
    <g transform="matrix(0.10592,0,0,0.10592,11.0993,0.339045)">
        <path d="M1126.92,1126.3C1155.77,1072.26 1185,1019.57 1214.42,968.417C1245,914.956 1276.15,863.417 1307.5,813.417C1309.23,810.533 1311.35,807.456 1313.08,804.571C1344.04,755.533 1375.38,708.225 1406.73,663.225L1311.92,483.994C1304.81,492.648 1297.69,501.494 1290.38,510.725C1262.88,544.956 1234.62,581.494 1205.38,620.533C1172.5,664.379 1138.85,711.302 1104.42,760.533C1072.88,805.917 1040.58,853.417 1008.27,902.84C980.769,944.763 953.462,987.84 926.154,1032.07C925.192,1033.61 924.231,1035.34 923.269,1037.07L1046.92,1281.3C1073.08,1228.42 1100,1176.69 1126.92,1126.3Z" style="fill:url(#_Linear2);fill-rule:nonzero;"/>
    </g>
    <g transform="matrix(0.10592,0,0,0.10592,11.0993,0.339045)">
        <path d="M563.846,2501.69C547.5,2546.49 530.962,2592.46 514.615,2639.19C514.423,2639.76 514.231,2640.53 513.846,2641.11C511.538,2647.65 509.038,2654.38 506.923,2660.92C495.769,2692.46 486.154,2720.92 464.038,2785.34C500.385,2801.88 529.615,2845.72 557.308,2895.34C554.423,2843.99 533.269,2795.72 492.692,2758.42C672.115,2766.49 826.731,2721.11 906.731,2589.96C913.846,2578.22 920.385,2566.11 926.346,2552.84C890,2598.99 844.808,2618.42 760,2613.8C759.808,2613.8 759.615,2613.99 759.423,2613.99C759.615,2613.99 759.808,2613.8 760,2613.8C885,2557.84 947.5,2504.19 1003.08,2415.34C1016.15,2394.19 1029.04,2371.3 1042.12,2345.72C932.885,2457.84 806.538,2489.76 673.269,2465.53L573.269,2476.49C570,2484.96 567.115,2493.22 563.846,2501.69Z" style="fill:url(#_Linear3);fill-rule:nonzero;"/>
    </g>
    <g transform="matrix(0.10592,0,0,0.10592,11.0993,0.339045)">
        <path d="M610.577,2278.03C632.115,2222.26 654.423,2165.72 677.115,2108.8C699.038,2054.19 721.346,1999.19 744.423,1944.19C767.5,1889.19 790.962,1833.61 814.808,1778.23C839.038,1721.88 864.038,1665.73 889.615,1609.76C914.808,1554.38 940.192,1499.38 966.154,1445.15C975.385,1425.53 985,1405.92 994.423,1386.49C1010.77,1352.84 1027.31,1319.38 1044.04,1286.3C1045,1284.57 1045.77,1282.65 1046.73,1280.92L923.077,1036.69C921.154,1039.96 919.038,1043.42 916.923,1046.49C888.077,1093.61 859.423,1141.69 831.346,1190.73C802.885,1240.34 775,1290.92 747.692,1342.26C724.808,1385.53 702.308,1428.99 680.192,1473.23C675.769,1482.07 671.538,1491.11 667.115,1499.96C640.192,1555.53 615.962,1608.8 593.846,1660.53C568.846,1718.8 546.923,1774.57 527.885,1827.46C515.192,1862.26 503.846,1895.73 493.269,1928.03C484.615,1955.53 476.538,1983.23 468.462,2010.73C450,2075.34 434.038,2139.96 420.962,2204.19L545.192,2449.38C561.538,2405.53 578.462,2360.92 595.769,2315.92C600.962,2303.03 605.577,2290.34 610.577,2278.03Z" style="fill:url(#_Linear4);fill-rule:nonzero;"/>
    </g>
    <g transform="matrix(0.10592,0,0,0.10592,11.0993,0.339045)">
        <path d="M419.615,2212.46C404.038,2290.92 392.885,2368.99 387.308,2446.69L386.731,2454.76C347.885,2392.65 244.231,2332.07 244.423,2332.65C318.846,2440.34 375.192,2547.26 383.462,2652.26C343.654,2660.34 289.231,2648.61 226.346,2625.53C291.923,2685.92 341.154,2702.46 360.577,2707.07C300.192,2710.92 237.5,2752.26 174.231,2799.96C266.731,2762.26 341.538,2747.26 395,2759.38C310,2999.76 225,3265.15 139.808,3547.07C165.962,3539.38 181.538,3521.69 190.192,3498.03C205.385,3447.07 305.962,3112.07 463.846,2672.26C468.462,2659.76 472.885,2647.07 477.5,2634.57C478.654,2630.92 480,2627.46 481.346,2624.19C497.885,2578.03 515.385,2530.92 533.077,2482.84C537.115,2471.88 541.154,2460.92 545.385,2449.96C545.385,2449.76 545.577,2449.57 545.577,2449.38L421.154,2204.19C420.769,2206.69 420.192,2209.57 419.615,2212.46Z" style="fill:url(#_Linear5);fill-rule:nonzero;"/>
    </g>
    <g transform="matrix(0.10592,0,0,0.10592,11.0993,0.339045)">
        <path d="M1065.96,1301.3C1062.31,1308.61 1058.85,1315.92 1055.19,1323.23C1044.42,1345.34 1033.65,1367.84 1022.5,1390.92C1010.58,1415.92 998.654,1441.3 986.538,1467.46C980.385,1480.53 974.231,1493.8 968.077,1507.26C949.615,1547.46 930.962,1588.99 911.923,1631.88C888.654,1684.38 864.615,1739.19 840.577,1796.11C817.692,1850.34 794.038,1906.3 770.577,1964.38C748.077,2019.38 725.385,2076.3 702.308,2134.76C681.731,2186.88 660.962,2240.72 640.192,2295.92C639.231,2298.42 638.269,2301.3 637.308,2303.8C616.538,2358.61 595.577,2414.96 574.615,2472.65C574.231,2473.99 573.654,2475.15 573.269,2476.69L673.269,2465.72C671.346,2465.34 669.231,2465.15 667.308,2464.76C786.731,2449.96 945.769,2360.53 1048.27,2250.34C1095.58,2199.57 1138.46,2139.57 1178.08,2069.38C1207.5,2017.26 1235.38,1959.19 1261.92,1895.15C1285,1839.19 1307.12,1778.42 1328.46,1712.84C1300.96,1727.26 1269.62,1738.03 1235,1745.34C1228.85,1746.69 1222.69,1747.84 1216.35,1748.99C1210,1750.15 1203.65,1751.11 1197.12,1751.88C1197.12,1751.88 1197.31,1751.88 1197.31,1751.69C1308.85,1708.8 1379.04,1626.11 1430,1524.76C1400.77,1544.76 1353.08,1570.92 1295.96,1583.42C1288.27,1585.15 1280.38,1586.49 1272.31,1587.84C1270.38,1588.03 1268.27,1588.42 1266.35,1588.8L1266.73,1588.8C1305.58,1572.65 1338.08,1554.38 1366.35,1533.03C1372.5,1528.42 1378.46,1523.8 1383.85,1518.8C1392.5,1511.3 1400.58,1503.42 1408.65,1495.34C1413.65,1489.96 1418.46,1484.57 1423.27,1478.99C1434.42,1465.73 1444.81,1451.49 1454.42,1436.11C1457.31,1431.3 1460.38,1426.69 1463.08,1421.69C1466.92,1414.57 1470.38,1407.46 1473.85,1400.73C1489.42,1369.57 1501.92,1341.49 1511.73,1317.07C1516.73,1304.76 1520.96,1293.61 1524.81,1282.84C1526.35,1278.61 1527.69,1274.57 1529.04,1270.53C1533.08,1258.8 1536.15,1248.42 1538.65,1239.19C1542.5,1225.34 1544.81,1214.38 1545.96,1206.49C1542.12,1209.38 1537.88,1212.46 1532.88,1215.34C1499.23,1235.53 1441.54,1253.61 1395,1262.26L1486.73,1252.26L1395,1262.26C1394.42,1262.46 1393.65,1262.46 1392.88,1262.65C1388.08,1263.42 1383.65,1264.19 1378.85,1264.76L1381.15,1263.61L1067.12,1298.03C1067.12,1298.8 1066.54,1300.15 1065.96,1301.3Z" style="fill:url(#_Linear6);fill-rule:nonzero;"/>
    </g>
    <g transform="matrix(0.10592,0,0,0.10592,11.0993,0.339045)">
        <path d="M1419.42,666.687C1391.54,709.571 1361.15,758.225 1328.08,813.417C1326.35,816.11 1324.42,819.379 1322.88,822.071C1294.62,869.763 1264.62,922.071 1232.69,979.571C1205.38,1029.19 1176.92,1082.26 1147.31,1139.38C1121.54,1189.19 1095,1242.07 1067.5,1298.03L1381.54,1263.61C1473.08,1221.49 1513.85,1183.61 1553.46,1128.42C1563.85,1113.23 1574.62,1097.46 1585,1080.92C1617.31,1030.53 1648.85,975.148 1677.12,919.956C1704.42,866.687 1728.46,813.994 1746.92,766.302C1758.65,736.11 1768.08,708.033 1774.62,683.225C1780.38,661.494 1784.81,640.725 1788.27,620.917C1666.54,641.879 1516.73,661.879 1419.42,666.687Z" style="fill:url(#_Linear7);fill-rule:nonzero;"/>
    </g>
    <g transform="matrix(0.10592,0,0,0.10592,11.0993,0.339045)">
        <path d="M1216.35,1748.61C1210,1749.76 1203.65,1750.73 1197.12,1751.49C1203.65,1750.92 1210.19,1749.76 1216.35,1748.61Z" style="fill:url(#_Linear8);fill-rule:nonzero;"/>
    </g>
    <g transform="matrix(0.10592,0,0,0.10592,11.0993,0.339045)">
        <path d="M1266.54,1588.61C1268.46,1588.42 1270.58,1588.03 1272.5,1587.65C1270.58,1587.84 1268.65,1588.42 1266.54,1588.61Z" style="fill:url(#_Linear9);fill-rule:nonzero;"/>
    </g>
    <g transform="matrix(0.10592,0,0,0.10592,11.0993,0.339045)">
        <path d="M1266.54,1588.61C1266.73,1588.61 1266.73,1588.42 1266.54,1588.61C1266.73,1588.42 1266.73,1588.61 1266.54,1588.61Z" style="fill:url(#_Linear10);fill-rule:nonzero;"/>
    </g>
    <g transform="matrix(0.10592,0,0,0.10592,11.0993,0.339045)">
        <path d="M1554.04,239.571C1501.92,270.34 1415.19,357.456 1312.12,483.802L1406.92,663.033C1473.65,567.84 1541.35,481.879 1609.62,408.61C1615,402.84 1617.5,400.148 1617.5,400.148C1615,402.84 1612.12,405.917 1609.62,408.61C1587.5,432.84 1520.38,511.302 1419.23,666.687C1516.73,661.879 1666.35,641.879 1788.46,621.11C1825,417.456 1752.88,324.379 1752.88,324.379C1752.88,324.379 1661.35,176.302 1554.04,239.571Z" style="fill:url(#_Linear11);fill-rule:nonzero;"/>
    </g>
    <g transform="matrix(0.10592,0,0,0.10592,11.0993,0.339045)">
        <path d="M1126.92,1126.3C1155.77,1072.26 1185,1019.57 1214.42,968.417C1245,914.956 1276.15,863.417 1307.5,813.417C1309.23,810.533 1311.35,807.456 1313.08,804.571C1344.04,755.533 1375.38,708.225 1406.73,663.225L1311.92,483.994C1304.81,492.648 1297.69,501.494 1290.38,510.725C1262.88,544.956 1234.62,581.494 1205.38,620.533C1172.5,664.379 1138.85,711.302 1104.42,760.533C1072.88,805.917 1040.58,853.417 1008.27,902.84C980.769,944.763 953.462,987.84 926.154,1032.07C925.192,1033.61 924.231,1035.34 923.269,1037.07L1046.92,1281.3C1073.08,1228.42 1100,1176.69 1126.92,1126.3Z" style="fill:url(#_Linear12);fill-rule:nonzero;"/>
    </g>
    <g transform="matrix(0.10592,0,0,0.10592,11.0993,0.339045)">
        <path d="M563.846,2501.69C547.5,2546.49 530.962,2592.46 514.615,2639.19C514.423,2639.76 514.231,2640.53 513.846,2641.11C511.538,2647.65 509.038,2654.38 506.923,2660.92C495.769,2692.46 486.154,2720.92 464.038,2785.34C500.385,2801.88 529.615,2845.72 557.308,2895.34C554.423,2843.99 533.269,2795.72 492.692,2758.42C672.115,2766.49 826.731,2721.11 906.731,2589.96C913.846,2578.22 920.385,2566.11 926.346,2552.84C890,2598.99 844.808,2618.42 760,2613.8C759.808,2613.8 759.615,2613.99 759.423,2613.99C759.615,2613.99 759.808,2613.8 760,2613.8C885,2557.84 947.5,2504.19 1003.08,2415.34C1016.15,2394.19 1029.04,2371.3 1042.12,2345.72C932.885,2457.84 806.538,2489.76 673.269,2465.53L573.269,2476.49C570,2484.96 567.115,2493.22 563.846,2501.69Z" style="fill:url(#_Linear13);fill-rule:nonzero;"/>
    </g>
    <g transform="matrix(0.10592,0,0,0.10592,11.0993,0.339045)">
        <path d="M610.577,2278.03C632.115,2222.26 654.423,2165.72 677.115,2108.8C699.038,2054.19 721.346,1999.19 744.423,1944.19C767.5,1889.19 790.962,1833.61 814.808,1778.23C839.038,1721.88 864.038,1665.73 889.615,1609.76C914.808,1554.38 940.192,1499.38 966.154,1445.15C975.385,1425.53 985,1405.92 994.423,1386.49C1010.77,1352.84 1027.31,1319.38 1044.04,1286.3C1045,1284.57 1045.77,1282.65 1046.73,1280.92L923.077,1036.69C921.154,1039.96 919.038,1043.42 916.923,1046.49C888.077,1093.61 859.423,1141.69 831.346,1190.73C802.885,1240.34 775,1290.92 747.692,1342.26C724.808,1385.53 702.308,1428.99 680.192,1473.23C675.769,1482.07 671.538,1491.11 667.115,1499.96C640.192,1555.53 615.962,1608.8 593.846,1660.53C568.846,1718.8 546.923,1774.57 527.885,1827.46C515.192,1862.26 503.846,1895.73 493.269,1928.03C484.615,1955.53 476.538,1983.23 468.462,2010.73C450,2075.34 434.038,2139.96 420.962,2204.19L545.192,2449.38C561.538,2405.53 578.462,2360.92 595.769,2315.92C600.962,2303.03 605.577,2290.34 610.577,2278.03Z" style="fill:url(#_Linear14);fill-rule:nonzero;"/>
    </g>
    <g transform="matrix(0.10592,0,0,0.10592,11.0993,0.339045)">
        <path d="M419.615,2212.46C404.038,2290.92 392.885,2368.99 387.308,2446.69L386.731,2454.76C347.885,2392.65 244.231,2332.07 244.423,2332.65C318.846,2440.34 375.192,2547.26 383.462,2652.26C343.654,2660.34 289.231,2648.61 226.346,2625.53C291.923,2685.92 341.154,2702.46 360.577,2707.07C300.192,2710.92 237.5,2752.26 174.231,2799.96C266.731,2762.26 341.538,2747.26 395,2759.38C310,2999.76 225,3265.15 139.808,3547.07C165.962,3539.38 181.538,3521.69 190.192,3498.03C205.385,3447.07 305.962,3112.07 463.846,2672.26C468.462,2659.76 472.885,2647.07 477.5,2634.57C478.654,2630.92 480,2627.46 481.346,2624.19C497.885,2578.03 515.385,2530.92 533.077,2482.84C537.115,2471.88 541.154,2460.92 545.385,2449.96C545.385,2449.76 545.577,2449.57 545.577,2449.38L421.154,2204.19C420.769,2206.69 420.192,2209.57 419.615,2212.46Z" style="fill:url(#_Linear15);fill-rule:nonzero;"/>
    </g>
    <g transform="matrix(0.10592,0,0,0.10592,11.0993,0.339045)">
        <path d="M1065.96,1301.3C1062.31,1308.61 1058.85,1315.92 1055.19,1323.23C1044.42,1345.34 1033.65,1367.84 1022.5,1390.92C1010.58,1415.92 998.654,1441.3 986.538,1467.46C980.385,1480.53 974.231,1493.8 968.077,1507.26C949.615,1547.46 930.962,1588.99 911.923,1631.88C888.654,1684.38 864.615,1739.19 840.577,1796.11C817.692,1850.34 794.038,1906.3 770.577,1964.38C748.077,2019.38 725.385,2076.3 702.308,2134.76C681.731,2186.88 660.962,2240.72 640.192,2295.92C639.231,2298.42 638.269,2301.3 637.308,2303.8C616.538,2358.61 595.577,2414.96 574.615,2472.65C574.231,2473.99 573.654,2475.15 573.269,2476.69L673.269,2465.72C671.346,2465.34 669.231,2465.15 667.308,2464.76C786.731,2449.96 945.769,2360.53 1048.27,2250.34C1095.58,2199.57 1138.46,2139.57 1178.08,2069.38C1207.5,2017.26 1235.38,1959.19 1261.92,1895.15C1285,1839.19 1307.12,1778.42 1328.46,1712.84C1300.96,1727.26 1269.62,1738.03 1235,1745.34C1228.85,1746.69 1222.69,1747.84 1216.35,1748.99C1210,1750.15 1203.65,1751.11 1197.12,1751.88C1197.12,1751.88 1197.31,1751.88 1197.31,1751.69C1308.85,1708.8 1379.04,1626.11 1430,1524.76C1400.77,1544.76 1353.08,1570.92 1295.96,1583.42C1288.27,1585.15 1280.38,1586.49 1272.31,1587.84C1270.38,1588.03 1268.27,1588.42 1266.35,1588.8L1266.73,1588.8C1305.58,1572.65 1338.08,1554.38 1366.35,1533.03C1372.5,1528.42 1378.46,1523.8 1383.85,1518.8C1392.5,1511.3 1400.58,1503.42 1408.65,1495.34C1413.65,1489.96 1418.46,1484.57 1423.27,1478.99C1434.42,1465.73 1444.81,1451.49 1454.42,1436.11C1457.31,1431.3 1460.38,1426.69 1463.08,1421.69C1466.92,1414.57 1470.38,1407.46 1473.85,1400.73C1489.42,1369.57 1501.92,1341.49 1511.73,1317.07C1516.73,1304.76 1520.96,1293.61 1524.81,1282.84C1526.35,1278.61 1527.69,1274.57 1529.04,1270.53C1533.08,1258.8 1536.15,1248.42 1538.65,1239.19C1542.5,1225.34 1544.81,1214.38 1545.96,1206.49C1542.12,1209.38 1537.88,1212.46 1532.88,1215.34C1499.23,1235.53 1441.54,1253.61 1395,1262.26L1486.73,1252.26L1395,1262.26C1394.42,1262.46 1393.65,1262.46 1392.88,1262.65C1388.08,1263.42 1383.65,1264.19 1378.85,1264.76L1381.15,1263.61L1067.12,1298.03C1067.12,1298.8 1066.54,1300.15 1065.96,1301.3Z" style="fill:url(#_Linear16);fill-rule:nonzero;"/>
    </g>
    <g transform="matrix(0.10592,0,0,0.10592,11.0993,0.339045)">
        <path d="M1419.42,666.687C1391.54,709.571 1361.15,758.225 1328.08,813.417C1326.35,816.11 1324.42,819.379 1322.88,822.071C1294.62,869.763 1264.62,922.071 1232.69,979.571C1205.38,1029.19 1176.92,1082.26 1147.31,1139.38C1121.54,1189.19 1095,1242.07 1067.5,1298.03L1381.54,1263.61C1473.08,1221.49 1513.85,1183.61 1553.46,1128.42C1563.85,1113.23 1574.62,1097.46 1585,1080.92C1617.31,1030.53 1648.85,975.148 1677.12,919.956C1704.42,866.687 1728.46,813.994 1746.92,766.302C1758.65,736.11 1768.08,708.033 1774.62,683.225C1780.38,661.494 1784.81,640.725 1788.27,620.917C1666.54,641.879 1516.73,661.879 1419.42,666.687Z" style="fill:url(#_Linear17);fill-rule:nonzero;"/>
    </g>
    <g transform="matrix(0.10592,0,0,0.10592,11.0993,0.339045)">
        <path d="M1216.35,1748.61C1210,1749.76 1203.65,1750.73 1197.12,1751.49C1203.65,1750.92 1210.19,1749.76 1216.35,1748.61Z" style="fill:url(#_Linear18);fill-rule:nonzero;"/>
    </g>
    <g transform="matrix(0.10592,0,0,0.10592,11.0993,0.339045)">
        <path d="M1266.54,1588.61C1266.73,1588.61 1266.73,1588.42 1266.54,1588.61C1266.73,1588.42 1266.73,1588.61 1266.54,1588.61Z" style="fill:url(#_Linear19);fill-rule:nonzero;"/>
    </g>
    <defs>
        <linearGradient id="_Linear1" x1="0" y1="0" x2="1" y2="0" gradientUnits="userSpaceOnUse" gradientTransform="matrix(695.837,-193.454,193.454,695.837,1104.81,55.7637)"><stop offset="0" style="stop-color:rgb(245,151,35);stop-opacity:1"/><stop offset="0.31" style="stop-color:rgb(246,152,34);stop-opacity:1"/><stop offset="0.84" style="stop-color:rgb(232,119,38);stop-opacity:1"/><stop offset="1" style="stop-color:rgb(232,119,38);stop-opacity:1"/></linearGradient>
        <linearGradient id="_Linear2" x1="0" y1="0" x2="1" y2="0" gradientUnits="userSpaceOnUse" gradientTransform="matrix(1415.32,-3035.16,3035.16,1415.32,-418.324,3178.69)"><stop offset="0" style="stop-color:rgb(156,32,99);stop-opacity:1"/><stop offset="0.32" style="stop-color:rgb(156,32,99);stop-opacity:1"/><stop offset="0.63" style="stop-color:rgb(200,32,55);stop-opacity:1"/><stop offset="0.75" style="stop-color:rgb(204,33,53);stop-opacity:1"/><stop offset="1" style="stop-color:rgb(232,119,38);stop-opacity:1"/></linearGradient>
        <linearGradient id="_Linear3" x1="0" y1="0" x2="1" y2="0" gradientUnits="userSpaceOnUse" gradientTransform="matrix(843.391,-1808.66,1808.66,843.391,56.5724,2954.08)"><stop offset="0" style="stop-color:rgb(40,38,97);stop-opacity:1"/><stop offset="0.1" style="stop-color:rgb(102,46,140);stop-opacity:1"/><stop offset="0.79" style="stop-color:rgb(158,32,100);stop-opacity:1"/><stop offset="0.95" style="stop-color:rgb(204,32,50);stop-opacity:1"/><stop offset="1" style="stop-color:rgb(204,32,50);stop-opacity:1"/></linearGradient>
        <linearGradient id="_Linear4" x1="0" y1="0" x2="1" y2="0" gradientUnits="userSpaceOnUse" gradientTransform="matrix(1415.32,-3035.16,3035.16,1415.32,-367.323,2994.93)"><stop offset="0" style="stop-color:rgb(156,32,99);stop-opacity:1"/><stop offset="0.32" style="stop-color:rgb(156,32,99);stop-opacity:1"/><stop offset="0.63" style="stop-color:rgb(200,32,55);stop-opacity:1"/><stop offset="0.75" style="stop-color:rgb(204,33,53);stop-opacity:1"/><stop offset="1" style="stop-color:rgb(232,119,38);stop-opacity:1"/></linearGradient>
        <linearGradient id="_Linear5" x1="0" y1="0" x2="1" y2="0" gradientUnits="userSpaceOnUse" gradientTransform="matrix(743.792,-1595.07,1595.07,743.792,-222.922,2792.78)"><stop offset="0" style="stop-color:rgb(40,38,97);stop-opacity:1"/><stop offset="0.1" style="stop-color:rgb(102,46,140);stop-opacity:1"/><stop offset="0.79" style="stop-color:rgb(158,32,100);stop-opacity:1"/><stop offset="0.95" style="stop-color:rgb(204,32,50);stop-opacity:1"/><stop offset="1" style="stop-color:rgb(204,32,50);stop-opacity:1"/></linearGradient>
        <linearGradient id="_Linear6" x1="0" y1="0" x2="1" y2="0" gradientUnits="userSpaceOnUse" gradientTransform="matrix(1415.32,-3035.16,3035.16,1415.32,-53.0727,3141.47)"><stop offset="0" style="stop-color:rgb(156,32,99);stop-opacity:1"/><stop offset="0.32" style="stop-color:rgb(156,32,99);stop-opacity:1"/><stop offset="0.63" style="stop-color:rgb(200,32,55);stop-opacity:1"/><stop offset="0.75" style="stop-color:rgb(204,33,53);stop-opacity:1"/><stop offset="1" style="stop-color:rgb(232,119,38);stop-opacity:1"/></linearGradient>
        <linearGradient id="_Linear7" x1="0" y1="0" x2="1" y2="0" gradientUnits="userSpaceOnUse" gradientTransform="matrix(1415.32,-3035.16,3035.16,1415.32,-156.593,3322.42)"><stop offset="0" style="stop-color:rgb(156,32,99);stop-opacity:1"/><stop offset="0.32" style="stop-color:rgb(156,32,99);stop-opacity:1"/><stop offset="0.63" style="stop-color:rgb(200,32,55);stop-opacity:1"/><stop offset="0.75" style="stop-color:rgb(204,33,53);stop-opacity:1"/><stop offset="1" style="stop-color:rgb(232,119,38);stop-opacity:1"/></linearGradient>
        <linearGradient id="_Linear8" x1="0" y1="0" x2="1" y2="0" gradientUnits="userSpaceOnUse" gradientTransform="matrix(1415.32,-3035.16,3035.16,1415.32,40.1855,3184.96)"><stop offset="0" style="stop-color:rgb(156,32,99);stop-opacity:1"/><stop offset="0.32" style="stop-color:rgb(156,32,99);stop-opacity:1"/><stop offset="0.63" style="stop-color:rgb(200,32,55);stop-opacity:1"/><stop offset="0.75" style="stop-color:rgb(204,33,53);stop-opacity:1"/><stop offset="1" style="stop-color:rgb(232,119,38);stop-opacity:1"/></linearGradient>
        <linearGradient id="_Linear9" x1="0" y1="0" x2="1" y2="0" gradientUnits="userSpaceOnUse" gradientTransform="matrix(1415.32,-3035.16,3035.16,1415.32,29.6526,3180.05)"><stop offset="0" style="stop-color:rgb(156,32,99);stop-opacity:1"/><stop offset="0.32" style="stop-color:rgb(156,32,99);stop-opacity:1"/><stop offset="0.63" style="stop-color:rgb(200,32,55);stop-opacity:1"/><stop offset="0.75" style="stop-color:rgb(204,33,53);stop-opacity:1"/><stop offset="1" style="stop-color:rgb(232,119,38);stop-opacity:1"/></linearGradient>
        <linearGradient id="_Linear10" x1="0" y1="0" x2="1" y2="0" gradientUnits="userSpaceOnUse" gradientTransform="matrix(312.832,-670.871,670.871,312.832,822.557,1473.91)"><stop offset="0" style="stop-color:rgb(156,32,99);stop-opacity:1"/><stop offset="0.32" style="stop-color:rgb(156,32,99);stop-opacity:1"/><stop offset="0.63" style="stop-color:rgb(200,32,55);stop-opacity:1"/><stop offset="0.75" style="stop-color:rgb(204,33,53);stop-opacity:1"/><stop offset="1" style="stop-color:rgb(232,119,38);stop-opacity:1"/></linearGradient>
        <linearGradient id="_Linear11" x1="0" y1="0" x2="1" y2="0" gradientUnits="userSpaceOnUse" gradientTransform="matrix(695.837,-193.454,193.454,695.837,1104.81,55.7637)"><stop offset="0" style="stop-color:rgb(245,151,35);stop-opacity:1"/><stop offset="0.31" style="stop-color:rgb(246,152,34);stop-opacity:1"/><stop offset="0.84" style="stop-color:rgb(232,119,38);stop-opacity:1"/><stop offset="1" style="stop-color:rgb(232,119,38);stop-opacity:1"/></linearGradient>
        <linearGradient id="_Linear12" x1="0" y1="0" x2="1" y2="0" gradientUnits="userSpaceOnUse" gradientTransform="matrix(1415.32,-3035.16,3035.16,1415.32,-418.324,3178.69)"><stop offset="0" style="stop-color:rgb(156,32,99);stop-opacity:1"/><stop offset="0.32" style="stop-color:rgb(156,32,99);stop-opacity:1"/><stop offset="0.63" style="stop-color:rgb(200,32,55);stop-opacity:1"/><stop offset="0.75" style="stop-color:rgb(204,33,53);stop-opacity:1"/><stop offset="1" style="stop-color:rgb(232,119,38);stop-opacity:1"/></linearGradient>
        <linearGradient id="_Linear13" x1="0" y1="0" x2="1" y2="0" gradientUnits="userSpaceOnUse" gradientTransform="matrix(843.391,-1808.66,1808.66,843.391,56.5724,2954.08)"><stop offset="0" style="stop-color:rgb(40,38,97);stop-opacity:1"/><stop offset="0.1" style="stop-color:rgb(102,46,140);stop-opacity:1"/><stop offset="0.79" style="stop-color:rgb(158,32,100);stop-opacity:1"/><stop offset="0.95" style="stop-color:rgb(204,32,50);stop-opacity:1"/><stop offset="1" style="stop-color:rgb(204,32,50);stop-opacity:1"/></linearGradient>
        <linearGradient id="_Linear14" x1="0" y1="0" x2="1" y2="0" gradientUnits="userSpaceOnUse" gradientTransform="matrix(1415.32,-3035.16,3035.16,1415.32,-367.323,2994.93)"><stop offset="0" style="stop-color:rgb(156,32,99);stop-opacity:1"/><stop offset="0.32" style="stop-color:rgb(156,32,99);stop-opacity:1"/><stop offset="0.63" style="stop-color:rgb(200,32,55);stop-opacity:1"/><stop offset="0.75" style="stop-color:rgb(204,33,53);stop-opacity:1"/><stop offset="1" style="stop-color:rgb(232,119,38);stop-opacity:1"/></linearGradient>
        <linearGradient id="_Linear15" x1="0" y1="0" x2="1" y2="0" gradientUnits="userSpaceOnUse" gradientTransform="matrix(743.792,-1595.07,1595.07,743.792,-222.922,2792.78)"><stop offset="0" style="stop-color:rgb(40,38,97);stop-opacity:1"/><stop offset="0.1" style="stop-color:rgb(102,46,140);stop-opacity:1"/><stop offset="0.79" style="stop-color:rgb(158,32,100);stop-opacity:1"/><stop offset="0.95" style="stop-color:rgb(204,32,50);stop-opacity:1"/><stop offset="1" style="stop-color:rgb(204,32,50);stop-opacity:1"/></linearGradient>
        <linearGradient id="_Linear16" x1="0" y1="0" x2="1" y2="0" gradientUnits="userSpaceOnUse" gradientTransform="matrix(1415.32,-3035.16,3035.16,1415.32,-53.0727,3141.47)"><stop offset="0" style="stop-color:rgb(156,32,99);stop-opacity:1"/><stop offset="0.32" style="stop-color:rgb(156,32,99);stop-opacity:1"/><stop offset="0.63" style="stop-color:rgb(200,32,55);stop-opacity:1"/><stop offset="0.75" style="stop-color:rgb(204,33,53);stop-opacity:1"/><stop offset="1" style="stop-color:rgb(232,119,38);stop-opacity:1"/></linearGradient>
        <linearGradient id="_Linear17" x1="0" y1="0" x2="1" y2="0" gradientUnits="userSpaceOnUse" gradientTransform="matrix(1415.32,-3035.16,3035.16,1415.32,-156.593,3322.42)"><stop offset="0" style="stop-color:rgb(156,32,99);stop-opacity:1"/><stop offset="0.32" style="stop-color:rgb(156,32,99);stop-opacity:1"/><stop offset="0.63" style="stop-color:rgb(200,32,55);stop-opacity:1"/><stop offset="0.75" style="stop-color:rgb(204,33,53);stop-opacity:1"/><stop offset="1" style="stop-color:rgb(232,119,38);stop-opacity:1"/></linearGradient>
        <linearGradient id="_Linear18" x1="0" y1="0" x2="1" y2="0" gradientUnits="userSpaceOnUse" gradientTransform="matrix(1415.32,-3035.16,3035.16,1415.32,40.1855,3184.96)"><stop offset="0" style="stop-color:rgb(156,32,99);stop-opacity:1"/><stop offset="0.32" style="stop-color:rgb(156,32,99);stop-opacity:1"/><stop offset="0.63" style="stop-color:rgb(200,32,55);stop-opacity:1"/><stop offset="0.75" style="stop-color:rgb(204,33,53);stop-opacity:1"/><stop offset="1" style="stop-color:rgb(232,119,38);stop-opacity:1"/></linearGradient>
        <linearGradient id="_Linear19" x1="0" y1="0" x2="1" y2="0" gradientUnits="userSpaceOnUse" gradientTransform="matrix(312.832,-670.871,670.871,312.832,822.557,1473.91)"><stop offset="0" style="stop-color:rgb(156,32,99);stop-opacity:1"/><stop offset="0.32" style="stop-color:rgb(156,32,99);stop-opacity:1"/><stop offset="0.63" style="stop-color:rgb(200,32,55);stop-opacity:1"/><stop offset="0.75" style="stop-color:rgb(204,33,53);stop-opacity:1"/><stop offset="1" style="stop-color:rgb(232,119,38);stop-opacity:1"/></linearGradient>
    </defs>
</svg>
