<?xml version="1.0" encoding="UTF-8" standalone="no"?>
<!DOCTYPE svg PUBLIC "-//W3C//DTD SVG 1.1//EN" "http://www.w3.org/Graphics/SVG/1.1/DTD/svg11.dtd">
<svg width="100%" height="100%" viewBox="0 0 105 100" version="1.1" xmlns="http://www.w3.org/2000/svg" xmlns:xlink="http://www.w3.org/1999/xlink" xml:space="preserve" xmlns:serif="http://www.serif.com/" style="fill-rule:evenodd;clip-rule:evenodd;stroke-linejoin:round;stroke-miterlimit:2;">
    <g transform="matrix(1,0,0,1,4.92923,-4.51474)">
        <path d="M5.979,30.509C-2.357,42.489 -1.319,58.075 5.048,70.804C5.2,71.109 5.358,71.409 5.515,71.71C5.615,71.9 5.709,72.096 5.812,72.283C5.871,72.396 5.937,72.506 5.998,72.613C6.107,72.816 6.218,73.009 6.33,73.206C6.528,73.555 6.73,73.902 6.938,74.249C7.053,74.439 7.166,74.63 7.285,74.82C7.514,75.191 7.75,75.557 7.99,75.924C8.09,76.08 8.188,76.236 8.291,76.387C8.623,76.883 8.962,77.376 9.312,77.862C9.321,77.875 9.33,77.889 9.341,77.901C9.396,77.979 9.457,78.055 9.514,78.133C9.816,78.55 10.129,78.963 10.445,79.371C10.561,79.52 10.678,79.669 10.795,79.818C11.077,80.172 11.364,80.523 11.656,80.875C11.765,81.007 11.874,81.138 11.984,81.268C12.376,81.729 12.775,82.188 13.183,82.637C13.19,82.644 13.2,82.654 13.207,82.662C13.224,82.681 13.239,82.693 13.254,82.713C13.652,83.148 14.059,83.572 14.472,83.997C14.6,84.129 14.731,84.261 14.863,84.39C15.182,84.712 15.507,85.03 15.836,85.345C15.969,85.472 16.1,85.601 16.233,85.723C16.672,86.136 17.115,86.541 17.566,86.937C17.574,86.944 17.58,86.949 17.587,86.954C17.664,87.022 17.743,87.086 17.819,87.151C18.217,87.496 18.622,87.838 19.03,88.174C19.196,88.309 19.365,88.441 19.532,88.575C19.865,88.841 20.202,89.105 20.541,89.363C20.721,89.5 20.9,89.637 21.081,89.774C21.456,90.049 21.833,90.32 22.214,90.587C22.353,90.687 22.487,90.784 22.626,90.88C22.665,90.906 22.701,90.933 22.74,90.96C23.101,91.209 23.471,91.448 23.84,91.688C23.998,91.793 24.156,91.903 24.316,92.005C24.882,92.364 25.457,92.718 26.038,93.06C26.196,93.15 26.355,93.238 26.514,93.328C26.941,93.575 27.371,93.817 27.807,94.053C28.042,94.18 28.284,94.3 28.522,94.422C28.83,94.583 29.135,94.747 29.447,94.903C29.518,94.937 29.592,94.971 29.661,95.006C29.787,95.067 29.914,95.125 30.04,95.189C30.524,95.421 31.012,95.648 31.506,95.867C31.611,95.914 31.712,95.96 31.816,96.007C32.381,96.253 32.951,96.49 33.526,96.717C33.664,96.773 33.803,96.827 33.942,96.881C34.474,97.086 35.014,97.288 35.556,97.479C35.624,97.503 35.69,97.525 35.759,97.549C36.353,97.757 36.954,97.95 37.558,98.138C37.702,98.179 37.847,98.226 37.992,98.267C38.608,98.453 39.216,98.675 39.85,98.792C80.16,106.143 91.869,74.568 91.869,74.568C82.035,87.38 64.579,90.759 48.04,86.997C47.414,86.855 46.806,86.66 46.195,86.479C46.04,86.433 45.887,86.387 45.734,86.34C45.138,86.157 44.545,85.964 43.957,85.762C43.877,85.733 43.795,85.703 43.713,85.674C43.186,85.488 42.664,85.293 42.146,85.093C41.999,85.034 41.853,84.978 41.706,84.919C41.137,84.695 40.572,84.46 40.014,84.216C39.9,84.167 39.79,84.116 39.676,84.067C39.196,83.85 38.722,83.63 38.249,83.403C38.112,83.337 37.976,83.274 37.837,83.206C37.466,83.025 37.099,82.832 36.733,82.644C36.488,82.515 36.239,82.393 35.996,82.258C35.549,82.019 35.11,81.77 34.673,81.516C34.525,81.433 34.375,81.353 34.226,81.267C33.645,80.925 33.071,80.571 32.503,80.212C32.346,80.112 32.193,80.005 32.038,79.902C31.626,79.636 31.216,79.365 30.812,79.087C30.678,78.996 30.549,78.899 30.417,78.809C30.027,78.533 29.641,78.254 29.258,77.971C29.084,77.842 28.913,77.712 28.744,77.583C28.393,77.314 28.044,77.043 27.698,76.765C27.541,76.64 27.385,76.516 27.231,76.391C26.792,76.03 26.357,75.666 25.929,75.292C25.884,75.253 25.835,75.214 25.786,75.173C25.322,74.765 24.867,74.348 24.416,73.928C24.286,73.803 24.159,73.681 24.031,73.557C23.697,73.239 23.369,72.919 23.047,72.592C22.917,72.463 22.788,72.336 22.661,72.206C22.251,71.787 21.848,71.362 21.454,70.93C21.434,70.908 21.413,70.888 21.394,70.866C20.976,70.41 20.569,69.943 20.169,69.472C20.061,69.343 19.956,69.218 19.848,69.091C19.551,68.732 19.255,68.369 18.967,68.002C18.859,67.87 18.751,67.735 18.644,67.599C18.297,67.149 17.958,66.7 17.626,66.244C8.444,53.719 5.145,36.444 12.484,22.257" style="fill:rgb(8,104,172);fill-rule:nonzero;"/>
    </g>
    <g transform="matrix(1,0,0,1,4.92923,-4.51474)">
        <path d="M31.852,20.416C25.824,29.09 26.151,40.702 30.853,49.876C31.642,51.414 32.528,52.906 33.519,54.327C34.423,55.621 35.424,57.161 36.622,58.201C37.057,58.68 37.511,59.146 37.975,59.605C38.092,59.725 38.212,59.839 38.331,59.957C38.782,60.394 39.24,60.823 39.713,61.241C39.733,61.255 39.75,61.275 39.769,61.29C39.774,61.295 39.779,61.297 39.783,61.302C40.306,61.761 40.847,62.203 41.397,62.638C41.519,62.73 41.639,62.828 41.763,62.923C42.313,63.346 42.875,63.761 43.451,64.156C43.468,64.169 43.483,64.181 43.5,64.193C43.754,64.369 44.013,64.532 44.27,64.701C44.393,64.781 44.511,64.867 44.635,64.942C45.046,65.206 45.463,65.462 45.886,65.709C45.946,65.745 46.005,65.777 46.063,65.811C46.428,66.021 46.798,66.229 47.169,66.429C47.299,66.502 47.43,66.566 47.562,66.634C47.819,66.768 48.075,66.905 48.336,67.034C48.375,67.054 48.416,67.071 48.453,67.088C48.984,67.349 49.52,67.601 50.067,67.84C50.184,67.892 50.305,67.938 50.424,67.987C50.861,68.172 51.303,68.353 51.747,68.524C51.935,68.595 52.125,68.663 52.313,68.731C52.716,68.88 53.12,69.017 53.528,69.154C53.712,69.212 53.893,69.273 54.077,69.329C54.657,69.51 55.229,69.737 55.834,69.837C86.957,74.993 94.142,51.031 94.142,51.031C87.665,60.36 75.122,64.81 61.737,61.336C61.142,61.18 60.556,61.009 59.974,60.826C59.796,60.772 59.621,60.714 59.444,60.655C59.03,60.521 58.619,60.379 58.211,60.23C58.025,60.162 57.838,60.094 57.655,60.023C57.208,59.852 56.766,59.674 56.328,59.488C56.208,59.437 56.087,59.391 55.97,59.337C55.421,59.098 54.88,58.846 54.347,58.582C54.072,58.448 53.802,58.307 53.532,58.167C53.376,58.087 53.219,58.006 53.062,57.926C52.716,57.738 52.372,57.542 52.032,57.345C51.952,57.298 51.867,57.254 51.786,57.205C51.364,56.959 50.949,56.705 50.538,56.444C50.411,56.363 50.289,56.275 50.162,56.192C49.891,56.016 49.62,55.838 49.354,55.658C48.78,55.262 48.222,54.847 47.672,54.427C47.545,54.327 47.418,54.229 47.293,54.129C41.434,49.503 36.79,43.182 34.582,36.014C32.268,28.58 32.767,20.235 36.776,13.463" style="fill:rgb(8,104,172);fill-rule:nonzero;"/>
    </g>
    <g transform="matrix(1,0,0,1,4.92923,-4.51474)">
        <path d="M53.613,12.875C50.06,18.105 49.71,24.599 52.176,30.375C54.776,36.505 60.105,41.315 66.323,43.595C66.58,43.69 66.836,43.776 67.096,43.864C67.209,43.898 67.322,43.937 67.436,43.971C67.803,44.086 68.166,44.22 68.545,44.291C85.73,47.611 90.391,35.472 91.632,33.686C87.549,39.565 80.687,40.976 72.268,38.932C71.603,38.77 70.872,38.53 70.231,38.303C69.409,38.01 68.599,37.676 67.812,37.298C66.317,36.58 64.892,35.708 63.571,34.71C56.037,28.994 51.357,18.089 56.273,9.208" style="fill:rgb(8,104,172);fill-rule:nonzero;"/>
    </g>
</svg>
