<?xml version="1.0" encoding="UTF-8" standalone="no"?>
<!DOCTYPE svg PUBLIC "-//W3C//DTD SVG 1.1//EN" "http://www.w3.org/Graphics/SVG/1.1/DTD/svg11.dtd">
<svg width="100%" height="100%" viewBox="0 0 600 600" version="1.1" xmlns="http://www.w3.org/2000/svg" xmlns:xlink="http://www.w3.org/1999/xlink" xml:space="preserve" xmlns:serif="http://www.serif.com/" style="fill-rule:evenodd;clip-rule:evenodd;">
    <g transform="matrix(1,0,0,1,-300,-100)">
        <g transform="matrix(1,0,0,1,-8.4179,-4.83516)">
            <clipPath id="_clip1">
                <rect x="302.509" y="122.925" width="594.403" height="586.023"/>
            </clipPath>
            <g clip-path="url(#_clip1)">
                <path d="M728.239,521.819C731.634,493.541 730.616,489.393 751.679,493.974L757.027,494.444C773.223,495.181 794.409,491.839 806.856,486.056C833.65,473.624 849.538,452.867 823.118,458.321C762.853,470.753 758.709,450.347 758.709,450.347C822.346,355.926 848.948,236.067 825.986,206.728C763.357,126.703 654.947,164.546 653.133,165.529L652.556,165.637C640.648,163.165 627.322,161.688 612.352,161.446C585.08,160.998 564.386,168.596 548.688,180.502C548.688,180.502 355.291,100.825 364.288,280.705C366.201,318.97 419.137,570.253 482.274,494.354C505.35,466.6 527.65,443.134 527.65,443.134C538.724,450.491 551.982,454.243 565.887,452.895L566.962,451.979C566.625,455.425 566.774,458.796 567.392,462.786C551.13,480.958 555.908,484.15 523.391,490.842C490.492,497.624 509.82,509.694 522.436,512.849C537.734,516.675 573.125,522.094 597.045,488.617L596.092,492.437C602.472,497.541 602.041,529.125 602.946,551.69C603.852,574.256 605.362,595.316 609.962,607.73C614.562,620.143 619.99,652.123 662.726,642.964C698.443,635.31 725.751,624.294 728.239,521.819" style="fill-rule:nonzero;stroke:black;stroke-width:44.81px;"/>
            </g>
        </g>
        <g transform="matrix(1,0,0,1,-8.4179,-4.83516)">
            <path d="M823.124,458.318C762.853,470.751 758.709,450.344 758.709,450.344C822.346,355.917 848.948,236.057 825.991,206.721C763.362,126.7 654.947,164.545 653.138,165.527L652.556,165.632C640.648,163.16 627.322,161.687 612.344,161.443C585.072,160.996 564.386,168.592 548.688,180.496C548.688,180.496 355.287,100.823 364.282,280.701C366.195,318.969 419.13,570.252 482.269,494.353C505.346,466.599 527.643,443.132 527.643,443.132C538.718,450.489 551.976,454.242 565.875,452.894L566.955,451.977C566.619,455.423 566.772,458.795 567.387,462.785C551.122,480.957 555.901,484.149 523.386,490.841C490.485,497.622 509.813,509.693 522.432,512.848C537.731,516.674 573.124,522.093 597.039,488.616L596.085,492.436C602.458,497.54 606.933,525.639 606.183,551.111C605.433,576.582 604.932,594.07 609.954,607.729C614.976,621.388 619.98,652.122 662.725,642.963C698.441,635.309 716.95,615.474 719.525,582.388C721.352,558.868 725.487,562.344 725.748,541.314L729.065,531.359C732.889,499.475 729.672,489.187 751.677,493.972L757.025,494.441C773.22,495.178 794.418,491.836 806.858,486.054C833.648,473.622 849.536,452.864 823.121,458.318L823.124,458.318Z" style="fill:rgb(51,103,145);fill-rule:nonzero;"/>
        </g>
        <g transform="matrix(1,0,0,1,-8.4179,-4.83516)">
            <path d="M599.627,476.595C597.967,535.925 600.044,595.668 605.849,610.188C611.658,624.707 624.089,652.949 666.837,643.791C702.55,636.134 715.544,621.318 721.183,588.614C725.336,564.551 733.342,497.726 734.369,484.034M548.39,179.171C548.39,179.171 354.857,100.072 363.854,279.951C365.768,318.218 418.706,569.509 481.844,493.606C504.916,465.849 525.782,444.079 525.782,444.079M652.926,164.734C646.227,166.835 760.581,122.931 825.569,205.972C848.525,235.309 821.923,355.171 758.287,449.6" style="fill:none;fill-rule:nonzero;stroke:white;stroke-width:14.94px;stroke-linecap:round;stroke-linejoin:round;"/>
        </g>
        <g transform="matrix(1,0,0,1,-8.4179,-4.83516)">
            <path d="M758.286,449.599C758.286,449.599 762.433,470.011 822.706,457.571C849.114,452.116 833.221,472.876 806.438,485.315C784.457,495.516 735.177,498.131 734.372,484.034C732.3,447.663 760.309,458.712 758.287,449.599C756.46,441.391 743.934,433.336 735.649,413.248C728.415,395.715 636.444,261.259 761.155,281.228C765.723,280.283 728.629,162.605 611.917,160.692C495.231,158.778 499.059,304.189 499.059,304.189" style="fill:none;fill-rule:nonzero;stroke:white;stroke-width:14.94px;stroke-linecap:round;stroke-linejoin:bevel;"/>
        </g>
        <g transform="matrix(1,0,0,1,-8.4179,-4.83516)">
            <path d="M566.962,462.037C550.694,480.209 555.478,483.401 522.961,490.095C490.06,496.877 509.39,508.947 522.006,512.1C537.304,515.928 572.697,521.348 596.612,487.862C603.895,477.667 596.569,461.399 586.565,457.252C581.732,455.251 575.269,452.741 566.962,462.037Z" style="fill:none;fill-rule:nonzero;stroke:white;stroke-width:14.94px;stroke-linecap:round;stroke-linejoin:round;"/>
        </g>
        <g transform="matrix(1,0,0,1,-8.4179,-4.83516)">
            <path d="M565.897,461.721C564.257,451.036 569.407,438.322 574.926,423.447C583.22,401.13 602.356,378.809 587.048,308.015C575.638,255.26 499.106,297.036 499.058,304.189C499.011,311.34 502.519,340.446 497.779,374.341C491.594,418.57 525.923,455.976 565.452,452.149" style="fill:none;fill-rule:nonzero;stroke:white;stroke-width:14.94px;stroke-linecap:round;stroke-linejoin:round;"/>
        </g>
        <g transform="matrix(1,0,0,1,-8.4179,-4.83516)">
            <path d="M547.686,303.117C547.341,305.561 552.159,312.079 558.441,312.95C564.713,313.825 570.081,308.73 570.421,306.29C570.761,303.846 565.949,301.155 559.665,300.281C553.39,299.406 548.02,300.68 547.688,303.117L547.686,303.117Z" style="fill:white;fill-rule:nonzero;stroke:white;stroke-width:4.98px;"/>
        </g>
        <g transform="matrix(1,0,0,1,-8.4179,-4.83516)">
            <path d="M738.707,298.136C739.047,300.58 734.235,307.098 727.952,307.969C721.676,308.844 716.308,303.749 715.964,301.309C715.632,298.866 720.445,296.174 726.722,295.3C733,294.425 738.366,295.699 738.707,298.137L738.707,298.136Z" style="fill:white;fill-rule:nonzero;stroke:white;stroke-width:2.49px;"/>
        </g>
        <g transform="matrix(1,0,0,1,-8.4179,-4.83516)">
            <path d="M761.155,281.228C762.189,300.392 757.027,313.445 756.376,333.846C755.413,363.498 770.514,397.438 747.76,431.42" style="fill:none;fill-rule:nonzero;stroke:white;stroke-width:14.94px;stroke-linecap:round;stroke-linejoin:round;"/>
        </g>
    </g>
</svg>
