<?xml version="1.0" encoding="UTF-8" standalone="no"?>
<!DOCTYPE svg PUBLIC "-//W3C//DTD SVG 1.1//EN" "http://www.w3.org/Graphics/SVG/1.1/DTD/svg11.dtd">
<svg width="100%" height="100%" viewBox="0 0 108 136" version="1.1" xmlns="http://www.w3.org/2000/svg" xmlns:xlink="http://www.w3.org/1999/xlink" xml:space="preserve" xmlns:serif="http://www.serif.com/" style="fill-rule:evenodd;clip-rule:evenodd;stroke-linejoin:round;stroke-miterlimit:2;">
    <g transform="matrix(1,0,0,1,2.18339,4.99063)">
        <g>
            <g>
                <g>
                    <path d="M84.388,1.897L84.388,7.588C84.388,7.588 74.204,3.794 67.615,10.683C62.823,15.675 62.423,21.266 64.62,28.754C86.185,28.754 89.58,40.835 89.58,40.835L87.384,26.957L94.173,18.67C94.173,8.886 86.086,2.396 84.388,1.897Z" style="fill:white;fill-rule:nonzero;"/>
                </g>
                <g>
                    <circle cx="86.285" cy="15.875" r="2.596"/>
                </g>
                <g>
                    <g>
                        <path d="M89.58,40.835C89.58,40.835 86.285,24.261 64.719,28.754C62.523,21.266 62.922,15.775 67.715,10.683C74.204,3.794 84.388,7.588 84.388,7.588L84.388,1.897C80.794,0.3 77.399,0 73.605,0C59.727,0 52.04,10.384 48.745,17.372L9.707,89.158L20.689,87.062L0.521,126L14.599,123.504L25.382,92.853C55.933,92.853 95.071,81.87 89.58,40.835Z" style="fill-rule:nonzero;"/>
                    </g>
                </g>
                <g>
                    <path d="M102.759,26.957L94.173,18.67L87.384,26.957L102.759,26.957Z" style="fill-rule:nonzero;"/>
                </g>
                <g>
                    <path d="M30.474,83.967C30.474,83.967 31.472,83.767 33.269,83.368C35.067,82.968 37.563,82.369 40.558,81.571C42.055,81.171 43.653,80.672 45.35,80.073C47.048,79.474 48.845,78.875 50.542,78.076C52.339,77.377 54.136,76.479 55.933,75.48C57.731,74.482 59.428,73.384 61.025,72.086C61.425,71.786 61.824,71.487 62.223,71.087L63.422,70.089C64.12,69.39 64.919,68.691 65.618,67.892C66.317,67.193 66.916,66.395 67.515,65.596C67.815,65.197 68.114,64.797 68.414,64.398L69.212,63.2C69.412,62.8 69.712,62.401 69.911,62.002C70.111,61.602 70.311,61.203 70.61,60.803L71.209,59.605C71.409,59.206 71.609,58.807 71.708,58.407C72.008,57.609 72.307,56.81 72.607,56.011C72.807,55.212 73.106,54.414 73.306,53.715C73.506,53.016 73.605,52.217 73.805,51.618C73.905,50.919 74.005,50.32 74.105,49.621C74.204,49.022 74.304,48.423 74.304,47.924C74.404,47.425 74.404,46.926 74.504,46.426C74.604,44.629 74.604,43.631 74.604,43.631L76.201,43.731C76.201,43.731 76.101,44.829 76.002,46.626C75.902,47.125 75.902,47.624 75.802,48.124C75.702,48.723 75.702,49.322 75.502,49.921C75.403,50.52 75.203,51.219 75.103,51.918C74.903,52.616 74.704,53.315 74.504,54.114C74.304,54.913 74.005,55.612 73.705,56.51C73.406,57.309 73.106,58.108 72.707,59.006L71.509,61.403C71.309,61.802 71.01,62.201 70.81,62.7C70.51,63.1 70.311,63.499 70.011,63.899C69.911,64.098 69.712,64.298 69.612,64.498L69.212,65.097C68.913,65.496 68.613,65.895 68.314,66.295C67.615,67.094 67.016,67.892 66.217,68.591C65.518,69.39 64.719,69.989 63.921,70.788L62.723,71.786C62.323,72.086 61.924,72.385 61.425,72.685C59.727,73.883 57.93,74.981 56.133,75.979C54.336,76.878 52.439,77.777 50.642,78.475C48.845,79.174 47.048,79.773 45.35,80.273C43.653,80.772 42.055,81.271 40.458,81.571C37.463,82.269 34.867,82.868 33.07,83.168C31.472,83.767 30.474,83.967 30.474,83.967Z" style="fill:white;fill-rule:nonzero;"/>
                </g>
            </g>
        </g>
    </g>
</svg>
