<?xml version="1.0" encoding="UTF-8" standalone="no"?>
<!DOCTYPE svg PUBLIC "-//W3C//DTD SVG 1.1//EN" "http://www.w3.org/Graphics/SVG/1.1/DTD/svg11.dtd">
<svg width="100%" height="100%" viewBox="0 0 415 450" version="1.1" xmlns="http://www.w3.org/2000/svg" xmlns:xlink="http://www.w3.org/1999/xlink" xml:space="preserve" style="fill-rule:evenodd;clip-rule:evenodd;stroke-linejoin:round;stroke-miterlimit:2;">
    <defs>
        <!-- Glassmorphism gradient -->
        <linearGradient id="glassGradient" x1="0%" y1="0%" x2="100%" y2="100%">
            <stop offset="0%" style="stop-color:#0EA5E9;stop-opacity:0.9" />
            <stop offset="50%" style="stop-color:#06B6D4;stop-opacity:0.8" />
            <stop offset="100%" style="stop-color:#8B5CF6;stop-opacity:0.9" />
        </linearGradient>

        <!-- Shine gradient for glass effect -->
        <linearGradient id="shineGradient" x1="0%" y1="0%" x2="100%" y2="100%">
            <stop offset="0%" style="stop-color:#ffffff;stop-opacity:0.4" />
            <stop offset="50%" style="stop-color:#ffffff;stop-opacity:0.1" />
            <stop offset="100%" style="stop-color:#ffffff;stop-opacity:0.3" />
        </linearGradient>

        <!-- Shadow filter for depth -->
        <filter id="shadow" x="-50%" y="-50%" width="200%" height="200%">
            <feGaussianBlur in="SourceAlpha" stdDeviation="8"/>
            <feOffset dx="0" dy="8" result="offsetblur"/>
            <feComponentTransfer>
                <feFuncA type="linear" slope="0.3"/>
            </feComponentTransfer>
            <feMerge>
                <feMergeNode/>
                <feMergeNode in="SourceGraphic"/>
            </feMerge>
        </filter>

        <!-- Glow filter -->
        <filter id="glow" x="-50%" y="-50%" width="200%" height="200%">
            <feGaussianBlur stdDeviation="4" result="coloredBlur"/>
            <feMerge>
                <feMergeNode in="coloredBlur"/>
                <feMergeNode in="SourceGraphic"/>
            </feMerge>
        </filter>
    </defs>

    <!-- Shadow layer -->
    <g transform="matrix(1,0,0,1,-42.8591,-25.2764)" opacity="0.3">
        <g transform="matrix(2.99401,0,0,2.99401,19.9935,-26.3625)">
            <g transform="matrix(0.311525,0,3.08149e-33,0.311525,43.3459,18.6069)">
                <path d="M235,382.8C235,352.4 240.5,320.2 254.5,269C268.2,219.1 270,209 270,183.1C270,157.2 267.3,144.6 257.2,124.1C240.3,89.4 208.6,67.8 163.2,59.9C134.2,55 83.8,59.2 74.3,67.4L71.5,69.8L71.2,155.1C71,230.3 71.1,240.6 72.5,242.6C74.7,246 81.5,249.1 97,254.1C105.044,256.591 112.277,257.932 115.778,258.498C116.124,258.554 118.071,258.808 118.004,261.113C118.003,261.174 118,292 118,292C118,301.901 117.941,308.779 117.941,313.026C117.941,314.573 116.519,315.326 115.011,314.985C114.275,314.818 78.766,305.557 58.3,299.1C39.6,293.2 30.4,288.3 20.8,279.2C11.2,270 6.5,261.3 5,249.9C4.5,245.6 4,198.8 4,138.9L4,35.3L14.8,30.2C34,21.1 66,11.6 93.5,6.8C105.2,4.7 118.753,2.056 137.138,2.056C160.214,2.056 168.7,4.6 180.4,7.4C214.8,15.5 241.9,30.1 265.9,53.4C272.7,60.1 280.6,68.5 283.5,72.1C304.2,97.8 319.9,133.6 326.5,169.9C328.7,182.3 329.543,193.471 329.543,208.1C329.543,220.477 328.6,234.9 327,245C317.1,305.5 290.3,352.9 244.8,390.2L235,398.1L235,382.8Z" style="fill:#000000;fill-rule:nonzero;"/>
            </g>
            <g transform="matrix(-0.311525,6.16298e-33,3.08149e-33,-0.311525,110.298,170.003)">
                <path d="M235,382.8C235,352.4 240.5,320.2 254.5,269C268.2,219.1 270,209 270,183.1C270,157.2 267.3,144.6 257.2,124.1C240.3,89.4 208.6,67.8 163.2,59.9C134.2,55 83.8,59.2 74.3,67.4L71.5,69.8L71.2,155.1C71,230.3 71.1,240.6 72.5,242.6C74.7,246 81.5,249.1 97,254.1C105.044,256.591 112.277,257.932 115.778,258.498C116.124,258.554 118.071,258.808 118.004,261.113C118.003,261.174 118,292 118,292C118,301.901 117.941,308.779 117.941,313.026C117.941,314.573 116.519,315.326 115.011,314.985C114.275,314.818 78.766,305.557 58.3,299.1C39.6,293.2 30.4,288.3 20.8,279.2C11.2,270 6.5,261.3 5,249.9C4.5,245.6 4,198.8 4,138.9L4,35.3L14.8,30.2C34,21.1 66,11.6 93.5,6.8C105.2,4.7 118.753,2.056 137.138,2.056C160.214,2.056 168.7,4.6 180.4,7.4C214.8,15.5 241.9,30.1 265.9,53.4C272.7,60.1 280.6,68.5 283.5,72.1C304.2,97.8 319.9,133.6 326.5,169.9C328.7,182.3 329.543,193.471 329.543,208.1C329.543,220.477 328.6,234.9 327,245C317.1,305.5 290.3,352.9 244.8,390.2L235,398.1L235,382.8Z" style="fill:#000000;fill-rule:nonzero;"/>
            </g>
        </g>
    </g>

    <!-- Main logo with gradient and glow -->
    <g transform="matrix(1,0,0,1,-42.8591,-25.2764)" filter="url(#glow)">
        <g transform="matrix(2.99401,0,0,2.99401,19.9935,-26.3625)">
            <g transform="matrix(0.311525,0,3.08149e-33,0.311525,43.3459,16.6069)">
                <path d="M235,382.8C235,352.4 240.5,320.2 254.5,269C268.2,219.1 270,209 270,183.1C270,157.2 267.3,144.6 257.2,124.1C240.3,89.4 208.6,67.8 163.2,59.9C134.2,55 83.8,59.2 74.3,67.4L71.5,69.8L71.2,155.1C71,230.3 71.1,240.6 72.5,242.6C74.7,246 81.5,249.1 97,254.1C105.044,256.591 112.277,257.932 115.778,258.498C116.124,258.554 118.071,258.808 118.004,261.113C118.003,261.174 118,292 118,292C118,301.901 117.941,308.779 117.941,313.026C117.941,314.573 116.519,315.326 115.011,314.985C114.275,314.818 78.766,305.557 58.3,299.1C39.6,293.2 30.4,288.3 20.8,279.2C11.2,270 6.5,261.3 5,249.9C4.5,245.6 4,198.8 4,138.9L4,35.3L14.8,30.2C34,21.1 66,11.6 93.5,6.8C105.2,4.7 118.753,2.056 137.138,2.056C160.214,2.056 168.7,4.6 180.4,7.4C214.8,15.5 241.9,30.1 265.9,53.4C272.7,60.1 280.6,68.5 283.5,72.1C304.2,97.8 319.9,133.6 326.5,169.9C328.7,182.3 329.543,193.471 329.543,208.1C329.543,220.477 328.6,234.9 327,245C317.1,305.5 290.3,352.9 244.8,390.2L235,398.1L235,382.8Z" style="fill:url(#glassGradient);fill-rule:nonzero;"/>
            </g>
            <g transform="matrix(-0.311525,6.16298e-33,3.08149e-33,-0.311525,110.298,168.003)">
                <path d="M235,382.8C235,352.4 240.5,320.2 254.5,269C268.2,219.1 270,209 270,183.1C270,157.2 267.3,144.6 257.2,124.1C240.3,89.4 208.6,67.8 163.2,59.9C134.2,55 83.8,59.2 74.3,67.4L71.5,69.8L71.2,155.1C71,230.3 71.1,240.6 72.5,242.6C74.7,246 81.5,249.1 97,254.1C105.044,256.591 112.277,257.932 115.778,258.498C116.124,258.554 118.071,258.808 118.004,261.113C118.003,261.174 118,292 118,292C118,301.901 117.941,308.779 117.941,313.026C117.941,314.573 116.519,315.326 115.011,314.985C114.275,314.818 78.766,305.557 58.3,299.1C39.6,293.2 30.4,288.3 20.8,279.2C11.2,270 6.5,261.3 5,249.9C4.5,245.6 4,198.8 4,138.9L4,35.3L14.8,30.2C34,21.1 66,11.6 93.5,6.8C105.2,4.7 118.753,2.056 137.138,2.056C160.214,2.056 168.7,4.6 180.4,7.4C214.8,15.5 241.9,30.1 265.9,53.4C272.7,60.1 280.6,68.5 283.5,72.1C304.2,97.8 319.9,133.6 326.5,169.9C328.7,182.3 329.543,193.471 329.543,208.1C329.543,220.477 328.6,234.9 327,245C317.1,305.5 290.3,352.9 244.8,390.2L235,398.1L235,382.8Z" style="fill:url(#glassGradient);fill-rule:nonzero;"/>
            </g>
        </g>
    </g>

    <!-- Shine overlay for glass effect -->
    <g transform="matrix(1,0,0,1,-42.8591,-25.2764)" opacity="0.6">
        <g transform="matrix(2.99401,0,0,2.99401,19.9935,-26.3625)">
            <g transform="matrix(0.311525,0,3.08149e-33,0.311525,43.3459,16.6069)">
                <path d="M235,382.8C235,352.4 240.5,320.2 254.5,269C268.2,219.1 270,209 270,183.1C270,157.2 267.3,144.6 257.2,124.1C240.3,89.4 208.6,67.8 163.2,59.9C134.2,55 83.8,59.2 74.3,67.4L71.5,69.8L71.2,155.1C71,230.3 71.1,240.6 72.5,242.6C74.7,246 81.5,249.1 97,254.1C105.044,256.591 112.277,257.932 115.778,258.498C116.124,258.554 118.071,258.808 118.004,261.113C118.003,261.174 118,292 118,292C118,301.901 117.941,308.779 117.941,313.026C117.941,314.573 116.519,315.326 115.011,314.985C114.275,314.818 78.766,305.557 58.3,299.1C39.6,293.2 30.4,288.3 20.8,279.2C11.2,270 6.5,261.3 5,249.9C4.5,245.6 4,198.8 4,138.9L4,35.3L14.8,30.2C34,21.1 66,11.6 93.5,6.8C105.2,4.7 118.753,2.056 137.138,2.056C160.214,2.056 168.7,4.6 180.4,7.4C214.8,15.5 241.9,30.1 265.9,53.4C272.7,60.1 280.6,68.5 283.5,72.1C304.2,97.8 319.9,133.6 326.5,169.9C328.7,182.3 329.543,193.471 329.543,208.1C329.543,220.477 328.6,234.9 327,245C317.1,305.5 290.3,352.9 244.8,390.2L235,398.1L235,382.8Z" style="fill:url(#shineGradient);fill-rule:nonzero;"/>
            </g>
            <g transform="matrix(-0.311525,6.16298e-33,3.08149e-33,-0.311525,110.298,168.003)">
                <path d="M235,382.8C235,352.4 240.5,320.2 254.5,269C268.2,219.1 270,209 270,183.1C270,157.2 267.3,144.6 257.2,124.1C240.3,89.4 208.6,67.8 163.2,59.9C134.2,55 83.8,59.2 74.3,67.4L71.5,69.8L71.2,155.1C71,230.3 71.1,240.6 72.5,242.6C74.7,246 81.5,249.1 97,254.1C105.044,256.591 112.277,257.932 115.778,258.498C116.124,258.554 118.071,258.808 118.004,261.113C118.003,261.174 118,292 118,292C118,301.901 117.941,308.779 117.941,313.026C117.941,314.573 116.519,315.326 115.011,314.985C114.275,314.818 78.766,305.557 58.3,299.1C39.6,293.2 30.4,288.3 20.8,279.2C11.2,270 6.5,261.3 5,249.9C4.5,245.6 4,198.8 4,138.9L4,35.3L14.8,30.2C34,21.1 66,11.6 93.5,6.8C105.2,4.7 118.753,2.056 137.138,2.056C160.214,2.056 168.7,4.6 180.4,7.4C214.8,15.5 241.9,30.1 265.9,53.4C272.7,60.1 280.6,68.5 283.5,72.1C304.2,97.8 319.9,133.6 326.5,169.9C328.7,182.3 329.543,193.471 329.543,208.1C329.543,220.477 328.6,234.9 327,245C317.1,305.5 290.3,352.9 244.8,390.2L235,398.1L235,382.8Z" style="fill:url(#shineGradient);fill-rule:nonzero;"/>
            </g>
        </g>
    </g>
</svg>
