<svg width="100%" height="100%" viewBox="0 0 301 632" version="1.1" xmlSpace="preserve" style={{fillRule:'evenodd',clipRule:'evenodd',strokeLinejoin:'round',strokeMiterlimit:2}}>
  <g transform="matrix(1,0,0,1,-99.4842,-99.9169)">
    <path stroke="#ccc" d="M309.964,443.058L309.964,387.859C291.527,395.944 271.155,400.433 249.742,400.433C166.813,400.433 99.484,333.104 99.484,250.175C99.484,167.245 166.813,99.917 249.742,99.917C332.614,99.917 399.906,167.151 400,250L400,250L400,580L399.998,580C399.999,580.245 400,580.493 400,580.742C400,663.672 332.672,731 249.742,731L249.742,730.881L189.639,730.881L189.639,731L128.326,731C120.677,731 113.341,727.961 107.932,722.552C102.523,717.143 99.484,709.807 99.484,702.158C99.484,644.742 99.484,516.742 99.484,459.326C99.484,451.677 102.523,444.341 107.932,438.932C113.341,433.523 120.677,430.484 128.326,430.484L249.742,430.484C271.155,430.484 291.527,434.973 309.964,443.058ZM189.639,612.003C189.639,619.653 192.678,626.989 198.087,632.398C203.496,637.807 210.832,640.845 218.481,640.845C233.899,640.845 249.742,640.845 249.742,640.845L249.742,640.964C282.98,640.964 309.964,613.98 309.964,580.742C309.964,547.505 282.98,520.52 249.742,520.52L218.481,520.52C210.832,520.52 203.496,523.559 198.087,528.968C192.678,534.377 189.639,541.713 189.639,549.362C189.639,568.324 189.639,593.041 189.639,612.003ZM249.742,189.953C282.98,189.953 309.964,216.937 309.964,250.175C309.964,283.412 282.98,310.397 249.742,310.397C216.505,310.397 189.52,283.412 189.52,250.175C189.52,216.937 216.505,189.953 249.742,189.953Z" style={{fill:'transparent'}} />
  </g>
</svg>