<?xml version="1.0" encoding="utf-8"?>
<!-- Generator: Adobe Illustrator 16.0.0, SVG Export Plug-In . SVG Version: 6.00 Build 0)  -->
<!DOCTYPE svg PUBLIC "-//W3C//DTD SVG 1.1//EN" "http://www.w3.org/Graphics/SVG/1.1/DTD/svg11.dtd">
<svg version="1.1" id="Layer_1" xmlns="http://www.w3.org/2000/svg" xmlns:xlink="http://www.w3.org/1999/xlink" x="0px" y="0px"
	 width="577.978px" height="386.713px" viewBox="0 0 577.978 386.713" enable-background="new 0 0 577.978 386.713"
	 xml:space="preserve">
<g>
	<path fill="none" stroke="#00ADDD" stroke-width="18" stroke-miterlimit="10" d="M284.374,341.877
		c25.567,14.838,55.268,23.34,86.957,23.34c95.819,0,173.495-77.675,173.495-173.494S467.15,18.229,371.331,18.229
		c-31.539,0-61.11,8.418-86.596,23.127"/>
	<path fill="none" stroke="#00ADDD" stroke-width="18" stroke-miterlimit="10" d="M303.627,53.995
		c20.435-10.086,43.417-15.765,67.704-15.765c84.637,0,153.495,68.857,153.495,153.494s-68.857,153.494-153.495,153.494
		c-24.421,0-47.523-5.742-68.042-15.934"/>
	<path fill="none" stroke="#00ADDD" stroke-width="18" stroke-miterlimit="10" d="M303.289,329.284
		c20.519,10.191,43.621,15.934,68.042,15.934c84.637,0,153.495-68.857,153.495-153.494S455.968,38.229,371.331,38.229
		c-24.287,0-47.27,5.679-67.704,15.765"/>
	<path fill="none" stroke="#00ADDD" stroke-width="18" stroke-miterlimit="10" d="M320.131,68.446
		c15.775-6.577,33.07-10.216,51.2-10.216c73.61,0,133.495,59.885,133.495,133.494c0,73.608-59.885,133.494-133.495,133.494
		c-18.236,0-35.629-3.682-51.479-10.331"/>
	<path fill="none" stroke="#00ADDD" stroke-width="18" stroke-miterlimit="10" d="M319.853,314.887
		c15.85,6.649,33.242,10.331,51.479,10.331c73.61,0,133.495-59.885,133.495-133.494c0-73.609-59.885-133.494-133.495-133.494
		c-18.13,0-35.425,3.64-51.2,10.216"/>
	<path fill="none" stroke="#00ADDD" stroke-width="18" stroke-miterlimit="10" d="M334.313,84.434
		c11.607-4.017,24.062-6.205,37.018-6.205c62.583,0,113.495,50.913,113.495,113.494s-50.912,113.493-113.495,113.493
		c-13.032,0-25.555-2.215-37.221-6.276"/>
	<circle fill="none" stroke="#00ADDD" stroke-width="18" stroke-miterlimit="10" cx="199.814" cy="191.532" r="173.495"/>
	<path fill="none" stroke="#00ADDD" stroke-width="18" stroke-miterlimit="10" d="M281.044,321.77
		c-71.812,44.791-166.678,22.807-211.469-49.006c-44.791-71.814-22.806-166.679,49.008-211.47
		c71.812-44.791,166.678-22.806,211.469,49.007C374.843,182.115,352.857,276.979,281.044,321.77z"/>
	<path fill="none" stroke="#00ADDD" stroke-width="18" stroke-miterlimit="10" d="M270.46,304.801
		c-62.457,38.954-144.96,19.834-183.915-42.622C47.59,199.723,66.71,117.218,129.167,78.264
		c62.457-38.955,144.961-19.834,183.915,42.622C352.036,183.342,332.917,265.846,270.46,304.801z"/>
	<path fill="none" stroke="#00ADDD" stroke-width="18" stroke-miterlimit="10" d="M259.876,287.83
		c-53.1,33.12-123.243,16.863-156.361-36.235c-33.119-53.1-16.863-123.243,36.236-156.361
		c53.099-33.119,123.242-16.863,156.361,36.236C329.23,184.568,312.976,254.712,259.876,287.83z"/>
	<polygon fill="none" stroke="#00ADDD" stroke-width="18" stroke-miterlimit="10" points="312.788,180.883 312.788,180.883 
		312.788,180.883 	"/>
	<polygon fill="none" stroke="#00ADDD" stroke-width="18" stroke-miterlimit="10" points="282.792,114.096 282.792,114.096 
		282.792,114.096 	"/>
	<path fill="none" stroke="#00ADDD" stroke-width="18" stroke-miterlimit="10" d="M270.622,252.924
		c16.045-18.556,24.017-42.664,22.623-66.756"/>
	<path fill="none" stroke="#00ADDD" stroke-width="18" stroke-miterlimit="10" d="M293.245,186.168
		c1.394,24.092-6.578,48.2-22.623,66.756"/>
	<path fill="none" stroke="#00ADDD" stroke-width="18" stroke-miterlimit="10" d="M255.499,239.83
		c12.613-14.586,18.879-33.535,17.784-52.474"/>
	<path fill="none" stroke="#00ADDD" stroke-width="18" stroke-miterlimit="10" d="M273.283,187.356
		c1.095,18.938-5.171,37.888-17.784,52.474"/>
	<path fill="none" stroke="#00ADDD" stroke-width="18" stroke-miterlimit="10" d="M240.378,226.739
		c9.181-10.616,13.74-24.409,12.944-38.194"/>
	<path fill="none" stroke="#00ADDD" stroke-width="18" stroke-miterlimit="10" d="M253.322,188.545
		c0.796,13.785-3.764,27.578-12.944,38.194"/>
	<path fill="none" stroke="#00ADDD" stroke-width="18" stroke-miterlimit="10" d="M225.257,213.647
		c5.748-6.647,8.604-15.282,8.104-23.914"/>
	<path fill="none" stroke="#00ADDD" stroke-width="18" stroke-miterlimit="10" d="M210.135,200.555
		c2.315-2.677,3.466-6.156,3.265-9.633"/>
	<path fill="none" stroke="#00ADDD" stroke-width="18" stroke-miterlimit="10" d="M213.399,190.922"/>
	<path fill="none" stroke="#00ADDD" stroke-width="18" stroke-miterlimit="10" d="M199.933,191.724"/>
	<path fill="none" stroke="#00ADDD" stroke-width="18" stroke-miterlimit="10" d="M210.135,200.555"/>
</g>
</svg>
