<svg id="Layer_1" data-name="Layer 1" xmlns="http://www.w3.org/2000/svg" viewBox="0 0 1188.7 772.35"><defs><style>.cls-1{fill:none;}.cls-1,.cls-2{stroke:#474747;stroke-miterlimit:10;stroke-width:0.5px;}.cls-2{fill:#fff;}</style></defs><path class="cls-1" d="M300.14,225.46,1003,292.61,601.55,538.85a.09.09,0,0,1-.12,0L300.09,225.56A.06.06,0,0,1,300.14,225.46Z" transform="translate(-287.78 -150.4)"/><path class="cls-1" d="M1003,292.61,1125.21,163a.24.24,0,0,1,.36,0l120.62,148.91a.08.08,0,0,1-.07.13Z" transform="translate(-287.78 -150.4)"/><path class="cls-1" d="M1246.3,312l80.23,25.26a.22.22,0,0,1,.08.37l-80.31,67.93Z" transform="translate(-287.78 -150.4)"/><path class="cls-1" d="M1327,337.5l126,121.65-9.7,109.6L1327,337.53S1327,337.47,1327,337.5Z" transform="translate(-287.78 -150.4)"/><path class="cls-1" d="M601.36,539.07,485.07,698.58s0,0,0,0L641.78,712,601.53,539.1A.09.09,0,0,0,601.36,539.07Z" transform="translate(-287.78 -150.4)"/><polygon class="cls-1" points="354 561.64 734.62 766.13 734.63 766.13 734.63 591.97 354 561.64"/><path class="cls-1" d="M1022.41,742.37l83.91-173.62,362.86,245a.19.19,0,0,1-.14.35Z" transform="translate(-287.78 -150.4)"/><path class="cls-1" d="M1106.32,568.75h337l26.56,95.1a0,0,0,0,1,0,0Z" transform="translate(-287.78 -150.4)"/><path class="cls-1" d="M1469.91,663.91V814.13a.19.19,0,0,1-.15.19L1022.41,916.53" transform="translate(-287.78 -150.4)"/><polyline class="cls-1" points="197.28 548.21 12.19 75.04 837.62 12.35 1039.12 186.99"/><path class="cls-1" d="M1443.33,568.75l-197-163.18L601.76,538.83a.1.1,0,0,0,0,.19l420.67,203.35" transform="translate(-287.78 -150.4)"/><polyline class="cls-1" points="313.7 388.5 818.54 418.35 958.52 255.17"/><line class="cls-1" x1="715.22" y1="142.21" x2="958.52" y2="255.65"/><line class="cls-1" x1="958.52" y1="161.62" x2="313.7" y2="388.5"/><circle class="cls-2" cx="197.28" cy="548.21" r="5.97"/><circle class="cls-2" cx="313.7" cy="388.5" r="13.02"/><circle class="cls-2" cx="12.19" cy="75.04" r="11.94"/><circle class="cls-2" cx="837.62" cy="12.35" r="12.1"/><circle class="cls-2" cx="1039.12" cy="186.99" r="10.89"/><circle class="cls-2" cx="958.52" cy="161.62" r="5.97"/><circle class="cls-2" cx="958.52" cy="255.65" r="8.2"/><circle class="cls-2" cx="818.21" cy="418.35" r="12.25"/><circle class="cls-2" cx="734.62" cy="591.49" r="9.09"/><circle class="cls-2" cx="354" cy="561.64" r="7.54"/><circle class="cls-2" cx="1164.5" cy="309.39" r="5.97"/><circle class="cls-2" cx="1155.55" cy="418.35" r="9.17"/><circle class="cls-2" cx="1182.42" cy="513.88" r="5.97"/><circle class="cls-2" cx="1182.42" cy="663.14" r="6.04"/><circle class="cls-2" cx="734.62" cy="766.13" r="5.97"/><circle class="cls-2" cx="715.22" cy="142.21" r="10.11"/><circle class="cls-2" cx="843.59" cy="201.92" r="5.97"/></svg>