<?xml version="1.0" encoding="UTF-8" standalone="no"?>
<!DOCTYPE svg PUBLIC "-//W3C//DTD SVG 1.1//EN" "http://www.w3.org/Graphics/SVG/1.1/DTD/svg11.dtd">
<svg width="100%" height="100%" viewBox="0 0 534 975" version="1.1" xmlns="http://www.w3.org/2000/svg" xmlns:xlink="http://www.w3.org/1999/xlink" xml:space="preserve" xmlns:serif="http://www.serif.com/" style="fill-rule:evenodd;clip-rule:evenodd;stroke-linejoin:round;stroke-miterlimit:2;">
    <g transform="matrix(1.33333,0,0,1.33333,-266.667,-77.3459)">
        <g transform="matrix(0.666667,0,0,1.82657,133.333,-124.647)">
            <path d="M700,111.323C700,105.069 686.11,100 668.977,100C565.71,100 234.29,100 131.023,100C113.89,100 100,105.069 100,111.323C100,169.131 100,430.869 100,488.677C100,494.931 113.89,500 131.023,500C234.29,500 565.71,500 668.977,500C686.11,500 700,494.931 700,488.677C700,430.869 700,169.131 700,111.323Z" style="fill:rgb(209,209,209);"/>
        </g>
        <g transform="matrix(0.640566,0,0,1.72702,143.774,-90.2831)">
            <path d="M700,111.976C700,108.8 696.598,105.753 690.543,103.508C684.488,101.262 676.276,100 667.713,100L132.287,100C123.724,100 115.512,101.262 109.457,103.508C103.402,105.753 100,108.8 100,111.976C100,170.853 100,429.147 100,488.024C100,491.2 103.402,494.247 109.457,496.492C115.512,498.738 123.724,500 132.287,500L667.713,500C676.276,500 684.488,498.738 690.543,496.492C696.598,494.247 700,491.2 700,488.024C700,429.147 700,170.853 700,111.976Z" style="fill:rgb(71,71,71);"/>
        </g>
        <g transform="matrix(0.24071,0,0,0.0816311,304.386,58.6008)">
            <path d="M700,299.997C700,246.955 692.854,196.085 680.135,158.578C667.415,121.071 650.164,100 632.176,100C516.715,100 283.285,100 167.824,100C149.836,100 132.585,121.071 119.865,158.578C107.146,196.085 100,246.955 100,299.997C100,299.999 100,300.001 100,300.003C100,353.045 107.146,403.915 119.865,441.422C132.585,478.929 149.836,500 167.824,500C283.285,500 516.715,500 632.176,500C650.164,500 667.415,478.929 680.135,441.422C692.854,403.915 700,353.045 700,300.003C700,300.001 700,299.999 700,299.997Z" style="fill:rgb(71,71,71);"/>
        </g>
    </g>
</svg>
